<svg viewBox="0 0 26 26" fill="none" xmlns="http://www.w3.org/2000/svg">
    <path
        d="M13.0074 1.6377C19.2789 1.6377 24.3623 6.72111 24.3623 12.9926C24.3622 19.264 19.2788 24.3496 13.0074 24.3496C6.73602 24.3495 1.65039 19.2661 1.65039 12.9947C1.6505 6.72339 6.73609 1.63781 13.0074 1.6377ZM13.0074 3.05745C7.52058 3.05751 3.07021 7.50534 3.07015 12.9947C3.07015 18.4841 7.518 22.9298 13.0074 22.9299C18.4943 22.9299 22.9425 18.4816 22.9425 12.9947C22.9425 7.50784 18.4943 3.05745 13.0074 3.05745Z"
        fill="black" />
    <path
        d="M16.8823 8.38137C17.2073 8.04367 18.0045 8.71906 18.0045 8.71906C18.8754 9.84133 19.3959 11.2657 19.3959 12.812C19.3959 16.4404 16.537 19.3806 13.0077 19.3806C9.47837 19.3806 6.61938 16.4404 6.61938 12.812C6.61938 11.2404 7.15513 9.79817 8.04888 8.66828C8.04888 8.66828 8.74712 8.04875 9.10259 8.37883C9.45806 8.70891 9.36665 9.29035 9.16099 9.54934C8.43735 10.4634 8.03618 11.6034 8.03618 12.812C8.03618 15.6634 10.2706 17.9613 13.0051 17.9613C15.7397 17.9613 17.9741 15.6659 17.9741 12.812C17.9741 11.6212 17.5831 10.4964 16.8797 9.58742C16.6791 9.32844 16.5547 8.71906 16.8823 8.38137Z"
        fill="black" />
    <path
        d="M12.2966 7.31509C12.2966 6.92407 12.6115 6.60669 13.0076 6.60669C13.3986 6.60669 13.7185 6.92407 13.7185 7.31509V12.2866C13.7185 12.6776 13.4037 12.995 13.0076 12.995C12.6166 12.995 12.2966 12.6776 12.2966 12.2866V7.31509Z"
        fill="black" />
</svg>